<?xml version="1.0" encoding="iso-8859-1"?>
<!-- Generator: Adobe Illustrator 18.1.1, SVG Export Plug-In . SVG Version: 6.00 Build 0)  -->
<svg version="1.1" id="Capa_1" xmlns="http://www.w3.org/2000/svg" xmlns:xlink="http://www.w3.org/1999/xlink" x="0px" y="0px"
	 viewBox="0 0 212.741 212.741" style="enable-background:new 0 0 212.741 212.741;" xml:space="preserve">
<g>
	<g>
		<path style="fill:#010002;" d="M106.392,56.537c-26.287,0-47.67,21.387-47.67,47.667c0,26.283,21.384,47.67,47.67,47.67
			c26.29,0,47.674-21.391,47.674-47.67C154.066,77.921,132.682,56.537,106.392,56.537z M106.392,145.4
			c-22.754,0-41.261-18.481-41.261-41.2c0-22.74,18.506-41.232,41.261-41.232c22.74,0,41.239,18.492,41.239,41.232
			C147.631,126.919,129.132,145.4,106.392,145.4z"/>
		<path style="fill:#010002;" d="M34.178,104.204c0-1.782-1.435-3.221-3.203-3.221H3.189c-1.761,0-3.189,1.442-3.189,3.221
			c0,1.768,1.428,3.207,3.189,3.207h27.786C32.743,107.41,34.178,105.968,34.178,104.204z"/>
		<path style="fill:#010002;" d="M53.608,49.866c1.192,1.192,3.353,1.167,4.538,0c1.238-1.249,1.245-3.296,0-4.542l-17.78-17.765
			C39.747,26.94,38.952,26.6,38.1,26.6c-0.852,0-1.657,0.34-2.262,0.952c-1.256,1.242-1.242,3.275,0,4.527L53.608,49.866z"/>
		<path style="fill:#010002;" d="M57.594,157.571c-0.866,0-1.664,0.34-2.28,0.956L37.535,176.3c-1.256,1.256-1.256,3.31,0,4.57
			c1.557,1.528,2.985,1.542,4.57-0.032l17.765-17.773c1.238-1.249,1.238-3.296-0.014-4.549
			C59.259,157.908,58.446,157.571,57.594,157.571z"/>
		<path style="fill:#010002;" d="M209.545,100.979h-27.779c-1.768,0-3.203,1.442-3.203,3.221c0,1.768,1.432,3.207,3.203,3.207
			h27.779c1.768,0,3.196-1.442,3.196-3.207C212.741,102.421,211.313,100.979,209.545,100.979z"/>
		<path style="fill:#010002;" d="M159.155,49.848l17.758-17.773c1.242-1.249,1.249-3.282,0.007-4.506
			c-0.619-0.626-1.424-0.966-2.28-0.966c-0.848,0-1.657,0.34-2.262,0.952l-17.79,17.78c-1.249,1.238-1.242,3.285,0.014,4.542
			C155.766,51.029,157.92,51.072,159.155,49.848z"/>
		<path style="fill:#010002;" d="M157.419,158.531c-0.612-0.623-1.414-0.963-2.273-0.963c-0.848,0-1.65,0.34-2.265,0.956
			c-1.267,1.274-1.267,3.271,0,4.542l17.765,17.805c1.016,0.998,2.623,1.893,4.585-0.039c1.22-1.224,1.22-3.278-0.036-4.534
			L157.419,158.531z"/>
		<path style="fill:#010002;" d="M104.431,178.955c-1.714,0.014-3.157,1.449-3.157,3.207v25.184c0,0.848,0.333,1.643,0.923,2.226
			c0.619,0.63,1.414,0.963,2.294,0.981c1.768-0.029,3.207-1.471,3.214-3.235l-0.007-25.156
			C107.698,180.408,106.235,178.969,104.431,178.955z"/>
		<path style="fill:#010002;" d="M104.488,33.768c1.768-0.029,3.207-1.471,3.214-3.239l-0.007-25.127
			c0-1.761-1.464-3.196-3.267-3.214c-1.714,0.021-3.157,1.457-3.157,3.214v25.156c0,1.088,0.505,1.814,0.923,2.23
			C102.817,33.414,103.611,33.747,104.488,33.768z"/>
	</g>
</g>
<g>
</g>
<g>
</g>
<g>
</g>
<g>
</g>
<g>
</g>
<g>
</g>
<g>
</g>
<g>
</g>
<g>
</g>
<g>
</g>
<g>
</g>
<g>
</g>
<g>
</g>
<g>
</g>
<g>
</g>
</svg>
